<?xml version="1.0" standalone="no"?>
<!DOCTYPE svg PUBLIC "-//W3C//DTD SVG 20010904//EN"
 "http://www.w3.org/TR/2001/REC-SVG-20010904/DTD/svg10.dtd">
<svg version="1.0" xmlns="http://www.w3.org/2000/svg"
 width="896.000000pt" height="879.000000pt" viewBox="0 0 896.000000 879.000000"
 preserveAspectRatio="xMidYMid meet">
<metadata>
Created by potrace 1.16, written by Peter Selinger 2001-2019
</metadata>
<g transform="translate(0.000000,879.000000) scale(0.100000,-0.100000)"
fill="#000000" stroke="none">
<path d="M4265 8358 c-38 -5 -110 -13 -160 -18 -49 -5 -115 -13 -145 -19 -169
-31 -238 -44 -265 -48 -16 -2 -37 -7 -45 -11 -14 -5 -79 -21 -155 -37 -16 -4
-39 -10 -50 -14 -24 -10 -102 -34 -165 -51 -25 -7 -54 -16 -65 -20 -11 -5 -42
-16 -70 -25 -53 -18 -57 -20 -145 -55 -54 -22 -77 -32 -210 -92 -114 -51 -293
-145 -340 -178 -14 -9 -29 -19 -35 -21 -39 -15 -339 -224 -400 -278 -22 -20
-61 -52 -85 -71 -254 -200 -605 -598 -834 -944 -40 -61 -86 -136 -102 -166
-16 -30 -44 -79 -62 -108 -34 -53 -172 -324 -172 -336 0 -3 -9 -25 -19 -49
-24 -50 -82 -211 -106 -287 -9 -30 -20 -64 -25 -75 -5 -11 -11 -29 -13 -40 -3
-11 -13 -45 -22 -75 -8 -30 -20 -75 -26 -100 -5 -25 -14 -63 -20 -85 -11 -43
-35 -173 -50 -270 -42 -265 -55 -513 -41 -753 12 -182 22 -284 41 -387 4 -27
14 -84 20 -125 6 -41 16 -91 21 -110 5 -19 21 -87 36 -150 15 -63 42 -161 60
-218 19 -56 34 -107 34 -112 0 -6 9 -29 19 -53 11 -23 29 -69 41 -102 12 -33
35 -88 51 -123 16 -35 29 -65 29 -68 0 -11 139 -282 150 -294 3 -3 10 -14 17
-25 67 -113 107 -178 117 -188 7 -6 43 -57 81 -112 38 -55 95 -128 127 -162
69 -74 88 -116 88 -194 0 -33 4 -67 9 -77 5 -9 17 -37 27 -62 27 -67 70 -126
154 -211 153 -155 404 -279 566 -279 74 0 103 -11 209 -75 177 -107 326 -183
527 -269 305 -130 641 -232 923 -281 50 -9 113 -20 140 -25 228 -41 544 -58
803 -42 674 42 1294 242 1947 631 l119 71 87 0 c139 0 304 61 474 175 223 150
345 343 345 546 0 73 7 86 112 213 147 176 341 510 453 781 58 139 150 418
183 556 139 569 161 1045 72 1584 -11 66 -24 136 -30 155 -5 19 -26 98 -46
175 -47 183 -139 452 -195 573 -16 35 -29 66 -29 69 0 8 -140 285 -159 313
-36 55 -42 66 -47 83 -4 9 -10 17 -15 17 -5 0 -9 5 -9 10 0 13 -115 196 -135
217 -8 8 -20 24 -26 35 -6 11 -17 27 -24 36 -7 9 -42 55 -77 102 -35 47 -72
96 -83 109 -109 130 -162 189 -305 331 -151 152 -218 213 -325 295 -21 17 -52
42 -69 56 -69 57 -235 170 -421 285 -65 41 -382 202 -460 234 -11 5 -38 16
-60 25 -22 10 -49 21 -60 25 -11 5 -38 14 -60 20 -22 7 -53 18 -70 25 -16 7
-57 21 -90 31 -33 10 -64 22 -70 26 -5 4 -17 8 -27 8 -10 0 -26 4 -36 9 -9 5
-53 17 -97 26 -44 9 -89 21 -100 25 -11 5 -33 11 -50 14 -16 3 -64 12 -105 21
-287 62 -752 92 -975 63z m1738 -503 c180 -38 329 -180 393 -375 16 -49 18
-106 22 -547 l3 -492 272 -3 272 -3 60 -29 c35 -17 84 -54 118 -88 l58 -59
137 -2 c131 -2 140 -3 196 -32 106 -53 180 -147 212 -268 17 -65 20 -605 3
-670 -15 -59 -75 -145 -134 -189 -72 -55 -156 -79 -302 -85 -100 -5 -123 -3
-126 8 -3 8 -14 57 -27 109 -12 52 -24 100 -27 107 -3 8 37 12 144 15 165 3
186 10 223 71 18 29 20 52 20 275 0 268 -7 316 -51 358 l-28 27 -205 -2 c-218
-2 -246 3 -246 43 0 44 -31 125 -59 155 l-29 31 -346 0 c-268 0 -348 3 -351
13 -3 6 -9 269 -15 583 -8 454 -13 580 -25 620 -28 96 -109 179 -197 203 -32
9 -409 11 -1513 9 l-1470 -3 -49 -24 c-62 -31 -109 -78 -143 -144 -24 -47 -27
-67 -34 -207 -4 -85 -10 -348 -14 -585 -3 -236 -9 -438 -11 -447 -5 -17 -30
-18 -336 -18 l-331 0 -31 -33 c-18 -19 -41 -63 -55 -103 -78 -227 -85 -244
-106 -244 -11 0 -48 -13 -83 -30 -48 -23 -68 -27 -82 -20 -29 15 -136 12 -178
-6 -47 -19 -88 -58 -115 -109 -33 -61 -31 -190 4 -265 51 -109 105 -150 199
-150 62 0 110 19 137 54 21 26 56 34 80 18 9 -6 6 -23 -12 -69 -14 -33 -35
-100 -47 -149 l-23 -89 -85 -5 c-175 -11 -278 26 -374 132 -63 69 -128 195
-151 289 -72 306 147 585 477 606 l87 6 12 51 c32 141 113 244 239 305 l75 36
238 3 237 3 1 202 c0 111 4 333 8 492 6 239 11 299 25 340 77 215 234 355 431
385 28 4 705 8 1505 9 1229 0 1466 -2 1523 -14z m-73 -384 c19 -10 48 -36 64
-59 29 -41 30 -45 37 -214 4 -95 10 -455 14 -800 7 -611 7 -628 -11 -630 -11
-1 -322 -2 -692 -2 -655 -1 -674 -2 -688 -20 -19 -27 -18 -59 5 -87 l19 -24
795 -3 795 -2 6 -22 c3 -12 3 -32 0 -43 -5 -20 -11 -20 -633 -21 -601 -1 -629
-2 -672 -21 -59 -26 -103 -65 -123 -108 -16 -32 -20 -35 -62 -35 l-45 0 -78
163 c-43 89 -83 176 -90 194 -16 40 -40 61 -77 68 -38 7 -71 -12 -94 -55 -39
-72 -84 -168 -125 -265 l-43 -100 -51 -3 c-39 -2 -51 0 -51 11 0 8 -13 33 -30
55 -32 44 -84 76 -140 86 -19 4 -315 8 -657 9 -342 2 -624 5 -626 8 -2 2 -7
21 -10 42 l-6 37 782 0 c502 0 795 4 819 10 29 8 39 18 48 44 7 22 7 42 1 58
l-10 26 -705 -2 -704 -1 -5 30 c-7 47 12 1325 22 1458 8 102 12 123 35 157 53
80 -20 74 1001 80 501 3 1144 4 1430 2 476 -3 523 -5 555 -21z m-3550 -1417
c0 -41 -19 -54 -80 -54 -52 0 -62 -3 -75 -24 -21 -32 -51 -127 -75 -240 -10
-48 -22 -91 -25 -94 -4 -4 -35 -7 -70 -7 -61 0 -63 1 -58 25 7 44 129 376 146
398 7 8 44 12 123 12 97 0 114 -2 114 -16z m4428 4 c7 -7 12 -20 12 -30 0 -16
-12 -18 -133 -18 -134 0 -134 0 -145 25 -7 14 -12 28 -12 30 0 3 60 5 133 5
90 0 137 -4 145 -12z m142 -213 c21 -22 25 -38 28 -120 l4 -95 -86 0 c-61 0
-88 4 -90 13 -2 6 -11 50 -20 97 -9 47 -19 95 -22 108 -6 22 -5 22 78 22 78 0
86 -2 108 -25z m405 -45 c12 -23 15 -56 13 -143 l-3 -112 -105 0 -105 0 -3
130 c-3 156 -4 155 110 155 76 0 78 -1 93 -30z m-4615 -5 l0 -25 -220 0 c-207
0 -220 1 -220 18 0 10 3 22 7 25 3 4 102 7 220 7 l213 0 0 -25z m3890 0 l0
-25 -220 0 c-207 0 -220 1 -220 18 0 10 3 22 7 25 3 4 102 7 220 7 l213 0 0
-25z m-4972 -176 c38 -13 49 -54 36 -132 -8 -43 -13 -53 -35 -61 -62 -21 -99
16 -99 100 0 53 13 82 43 94 12 5 22 9 23 9 1 1 15 -4 32 -10z m2269 -248 c47
-22 73 -62 73 -114 0 -34 -22 -63 -67 -86 -61 -31 -301 -91 -563 -141 -198
-37 -286 -58 -320 -75 -40 -21 -70 -59 -76 -96 -13 -79 75 -140 371 -257 675
-268 1152 -320 1705 -187 299 72 815 275 898 352 59 57 35 150 -49 190 -24 11
-147 41 -274 67 -467 93 -649 150 -669 207 -15 45 1 96 41 126 l36 28 850 3
c933 3 902 4 999 -57 94 -60 109 -110 204 -694 l37 -227 -39 -36 c-53 -48
-134 -83 -219 -94 -42 -6 -1006 -9 -2435 -7 l-2365 2 -70 24 c-38 13 -79 25
-90 26 -11 1 -21 4 -22 5 -3 2 -11 5 -29 9 -3 0 -2 6 1 12 5 7 14 4 28 -8 12
-10 7 -2 -11 18 -18 20 -35 51 -38 70 -11 71 108 734 144 805 32 62 84 105
159 130 l68 23 840 1 c804 0 842 -1 882 -19z m621 -97 l72 -6 0 -108 c0 -60 3
-115 6 -124 8 -20 48 -21 102 -2 77 27 145 30 196 8 25 -12 46 -24 46 -27 0
-31 -77 -93 -177 -144 -231 -116 -486 -99 -702 48 -31 21 -66 50 -79 63 l-22
24 25 24 c22 21 35 24 103 24 47 0 98 -7 130 -18 81 -27 82 -26 82 113 0 116
1 120 23 123 45 7 124 7 195 2z m-709 -340 c10 -23 8 -30 -28 -72 -22 -26 -73
-80 -114 -120 -65 -65 -77 -72 -101 -66 -15 3 -30 13 -33 20 -5 13 233 261
253 263 6 1 16 -11 23 -25z m1446 -103 c74 -73 124 -129 121 -137 -3 -7 -17
-16 -32 -20 -23 -6 -38 5 -136 102 -60 60 -114 117 -119 126 -11 20 9 60 28
56 6 -2 68 -59 138 -127z m-3549 52 c-25 -119 -81 -564 -120 -968 -14 -137
-45 -455 -70 -705 -25 -250 -50 -502 -56 -560 -31 -318 -39 -602 -19 -733 20
-132 108 -274 216 -348 24 -17 81 -45 126 -62 l82 -32 2575 0 c2473 0 2577 1
2635 18 164 51 272 146 337 297 l33 75 3 255 c4 279 0 331 -74 1070 -107 1070
-126 1236 -191 1684 -6 38 -5 39 20 33 99 -25 192 -97 225 -175 22 -52 42
-196 97 -697 110 -1008 161 -1568 152 -1680 -3 -38 -18 -106 -32 -150 -14 -44
-37 -133 -51 -198 -51 -240 -115 -370 -243 -497 -128 -127 -272 -202 -463
-243 l-103 -22 -2340 0 c-1831 0 -2354 3 -2406 13 -269 51 -508 208 -634 418
-37 61 -78 182 -120 349 -13 55 -36 142 -50 194 -38 142 -36 197 30 881 14
146 37 369 50 495 14 127 39 359 55 516 49 469 65 576 97 639 33 63 100 120
172 143 67 23 74 22 67 -10z m3391 -98 c39 -44 85 -93 102 -109 17 -17 31 -33
31 -38 0 -14 -69 -43 -79 -32 -43 49 -171 212 -171 219 0 12 32 46 40 43 3 -2
38 -39 77 -83z m-1187 60 c10 -13 10 -21 1 -43 -15 -32 -151 -202 -162 -202
-20 0 -59 25 -57 36 5 20 182 223 194 224 6 0 17 -7 24 -15z m1082 -158 c70
-106 73 -120 22 -130 -29 -5 -33 -1 -101 116 -44 75 -45 78 -28 97 10 11 23
20 29 19 6 0 41 -46 78 -102z m-962 78 c10 -12 7 -24 -15 -62 -15 -27 -39 -68
-52 -93 -35 -61 -37 -63 -73 -55 -41 9 -38 23 37 136 58 88 79 103 103 74z
m124 -58 c16 -12 16 -18 -10 -100 l-28 -87 -36 0 c-20 0 -39 3 -43 6 -3 3 8
37 24 75 16 38 34 81 39 94 11 28 27 31 54 12z m689 -75 c42 -100 44 -112 18
-112 -11 0 -27 -3 -35 -6 -12 -5 -22 7 -40 48 -41 93 -52 138 -35 149 39 24
54 11 92 -79z m-517 35 c2 -2 -1 -42 -7 -90 l-12 -87 -31 0 c-56 0 -61 10 -42
84 9 36 16 75 16 87 0 19 4 21 36 16 20 -3 38 -8 40 -10z m343 -24 c20 -74 32
-136 27 -140 -2 -3 -22 -7 -44 -10 -45 -6 -46 -5 -58 106 -7 68 -1 81 43 81
17 0 24 -8 32 -37z m-185 21 c13 -5 16 -23 16 -96 l0 -89 -42 3 -43 3 1 77 c1
42 4 84 7 92 7 16 33 21 61 10z m1304 -809 c59 -9 112 -56 112 -99 0 -69 -71
-115 -176 -116 -69 0 -118 17 -151 52 -64 69 -20 149 94 167 26 5 55 7 63 5 8
-1 34 -6 58 -9z m-3122 -14 c142 -65 70 -201 -106 -201 -106 0 -180 46 -180
111 0 33 34 77 74 95 47 20 163 17 212 -5z m630 0 c142 -65 70 -201 -106 -201
-108 0 -180 46 -180 115 1 66 65 104 175 104 47 1 83 -5 111 -18z m616 7 c47
-14 88 -59 88 -98 0 -111 -235 -153 -330 -59 -53 54 -30 126 50 158 35 14 145
13 192 -1z m656 -9 c29 -14 49 -33 60 -55 14 -31 14 -37 0 -68 -11 -23 -32
-41 -63 -56 -40 -19 -58 -22 -126 -18 -69 4 -84 8 -116 34 -71 58 -64 121 17
162 61 30 166 31 228 1z m614 9 c74 -22 109 -94 72 -147 -37 -52 -154 -76
-246 -51 -114 32 -131 150 -28 194 42 18 148 20 202 4z m1285 -8 c30 -13 48
-30 60 -54 16 -34 16 -38 0 -72 -23 -47 -81 -73 -165 -74 -132 0 -216 78 -172
161 31 57 189 80 277 39z m-4604 -155 c35 -23 35 -25 -13 -384 -34 -257 -84
-682 -105 -892 -4 -40 -2 -84 5 -109 25 -94 174 -201 297 -215 32 -4 78 -13
102 -21 34 -11 111 -14 335 -14 257 0 295 -2 325 -18 34 -17 79 -67 70 -77 -3
-3 -221 -6 -485 -7 -442 -3 -484 -2 -539 15 -113 35 -207 105 -247 181 -39 77
-41 46 58 1061 43 438 47 471 67 489 26 22 89 18 130 -9z m5303 -5 c7 -14 24
-153 38 -310 15 -157 42 -449 61 -650 41 -434 43 -516 15 -576 -39 -80 -126
-144 -245 -180 -55 -17 -100 -18 -519 -17 -252 1 -461 4 -463 7 -3 2 2 17 11
33 28 55 43 57 381 63 200 3 317 9 330 16 11 6 47 14 80 17 83 7 164 40 219
88 94 83 100 117 70 412 -28 275 -66 593 -96 807 -11 85 -22 184 -22 220 -1
65 -1 65 34 83 48 24 92 19 106 -13z m-278 -17 c6 -9 12 -31 12 -47 0 -17 7
-76 15 -130 8 -55 14 -100 13 -102 -2 -1 -38 8 -80 19 -83 24 -88 29 -88 99 0
58 -16 88 -50 94 -35 7 -35 6 -15 44 9 18 28 33 48 39 44 14 129 4 145 -16z
m-4668 -10 c27 -34 22 -57 -12 -61 -41 -5 -58 -37 -58 -109 l0 -62 -42 -11
c-24 -6 -60 -17 -80 -24 l-38 -14 0 41 c1 88 27 249 41 258 8 5 49 9 91 9 71
0 78 -2 98 -27z m81 -384 c108 -33 110 -140 3 -185 -123 -52 -303 18 -280 109
8 33 41 65 81 76 44 13 152 13 196 0z m4503 0 c48 -13 96 -59 96 -92 0 -90
-179 -143 -294 -88 -57 28 -85 75 -70 119 20 60 158 92 268 61z m-3867 -10
c78 -29 98 -100 41 -140 -35 -25 -128 -37 -192 -25 -70 13 -110 68 -89 121 16
44 167 72 240 44z m563 -8 c19 -10 42 -30 50 -45 13 -23 13 -29 0 -53 -24 -43
-80 -66 -160 -65 -97 1 -160 38 -160 94 0 32 38 74 73 81 63 12 164 6 197 -12z
m530 3 c52 -21 75 -61 58 -99 -40 -88 -276 -88 -316 -1 -18 39 0 73 50 96 54
24 152 26 208 4z m537 -4 c73 -32 81 -95 18 -136 -28 -19 -135 -30 -189 -20
-45 9 -96 51 -96 81 0 32 36 73 73 84 56 16 149 12 194 -9z m532 7 c19 -7 43
-24 55 -39 58 -79 -80 -159 -214 -124 -117 31 -134 123 -30 165 34 14 148 12
189 -2z m548 -7 c120 -54 51 -162 -102 -161 -119 1 -179 44 -161 117 15 59
173 85 263 44z m543 -2 c38 -19 46 -28 48 -55 2 -18 -1 -41 -7 -51 -29 -54
-173 -72 -255 -33 -49 24 -63 51 -52 97 16 61 177 86 266 42z m-4201 -292 c7
-8 42 -27 79 -42 37 -15 68 -29 70 -30 4 -2 -15 -160 -55 -456 -33 -242 -38
-268 -55 -268 -31 0 -87 27 -113 56 -28 30 -31 71 -15 184 5 36 18 153 30 260
31 300 32 310 40 310 4 0 13 -6 19 -14z m4980 -206 c12 -107 26 -229 31 -270
5 -41 13 -114 16 -163 8 -104 2 -115 -84 -147 -56 -21 -71 -17 -72 16 0 6 -13
119 -29 250 -16 131 -32 273 -36 314 -3 41 -8 87 -11 102 -5 24 0 29 55 53 33
15 68 36 77 47 14 14 19 16 25 6 4 -7 17 -101 28 -208z m-4439 -86 c85 -34 86
-124 1 -157 -61 -25 -164 -22 -212 5 -45 25 -67 68 -51 102 26 58 172 86 262
50z m480 -6 c79 -40 78 -112 -2 -151 -49 -24 -154 -24 -204 -1 -46 22 -72 72
-56 108 29 64 174 88 262 44z m620 0 c78 -40 78 -107 1 -151 -45 -27 -151 -28
-204 -2 -49 23 -73 68 -58 108 24 64 173 89 261 45z m600 0 c78 -40 78 -107 1
-151 -45 -27 -151 -28 -205 -2 -40 19 -67 63 -59 96 7 25 45 59 79 69 57 17
137 11 184 -12z m597 7 c55 -23 73 -44 73 -82 0 -62 -56 -95 -161 -95 -72 0
-118 17 -143 54 -33 47 -13 96 52 125 39 17 137 16 179 -2z m649 -8 c43 -22
63 -71 43 -105 -24 -43 -73 -65 -148 -66 -157 -1 -229 111 -111 172 38 20 56
23 115 19 39 -2 84 -11 101 -20z m642 -4 c62 -46 58 -109 -8 -144 -47 -25
-161 -26 -209 -1 -85 43 -90 109 -11 150 39 20 56 23 123 19 58 -3 85 -9 105
-24z m439 16 c97 -37 97 -131 0 -168 -45 -17 -147 -13 -186 7 -85 43 -90 109
-11 150 49 24 147 30 197 11z m-780 -474 c70 -21 113 -70 113 -129 0 -44 -18
-70 -67 -95 -16 -8 -390 -11 -1368 -11 -1458 0 -1381 -3 -1419 52 -32 45 -15
123 33 155 65 42 49 42 1382 42 1110 1 1282 -1 1326 -14z m-4087 -318 c25 -13
70 -33 100 -43 53 -18 145 -19 2660 -19 l2605 0 70 23 c39 13 80 30 93 38 12
8 33 21 46 30 23 15 24 14 19 -5 -3 -12 -9 -18 -14 -16 -4 3 -11 -10 -14 -29
-7 -36 -60 -116 -77 -116 -5 0 -2 7 6 16 20 20 20 33 1 40 -12 5 -13 9 -3 21
6 8 -8 4 -33 -10 -24 -13 -75 -32 -114 -41 -65 -15 -263 -16 -2610 -14 l-2540
3 -48 22 c-26 12 -51 23 -55 23 -15 1 -112 54 -112 61 0 5 -7 5 -17 2 -10 -4
-14 -2 -9 5 3 6 2 13 -3 16 -5 4 -8 -1 -7 -10 1 -8 8 -19 15 -23 7 -5 12 -11
12 -15 -3 -22 3 -35 29 -65 38 -43 39 -53 1 -17 -31 30 -76 113 -87 161 l-7
30 24 -21 c13 -12 44 -33 69 -47z"/>
<path d="M3117 7222 c-21 -23 -22 -56 -1 -76 14 -14 150 -16 1348 -16 1279 0
1334 1 1349 18 22 24 21 55 -1 75 -17 16 -125 17 -1349 17 -1276 0 -1331 -1
-1346 -18z"/>
<path d="M3122 6864 c-26 -18 -30 -65 -6 -88 14 -14 150 -16 1348 -16 1279 0
1334 1 1349 18 24 26 21 68 -5 86 -20 14 -164 16 -1343 16 -1179 0 -1323 -2
-1343 -16z"/>
<path d="M3116 6491 c-26 -28 -18 -82 14 -98 20 -11 287 -13 1347 -11 1160 3
1324 5 1337 18 26 27 28 55 5 83 l-20 27 -1333 0 c-1298 0 -1333 0 -1350 -19z"/>
<path d="M3110 6101 c-15 -30 -12 -66 8 -84 17 -16 125 -17 1349 -17 1310 0
1330 0 1348 20 20 23 23 63 5 85 -11 13 -173 15 -1356 15 -1318 0 -1343 0
-1354 -19z"/>
</g>
</svg>
